<svg id="Icons" height="512" fill="white" viewBox="0 0 74 74" width="512" xmlns="http://www.w3.org/2000/svg"><path d="m37 72a35 35 0 1 1 35-35 35.04 35.04 0 0 1 -35 35zm0-68a33 33 0 1 0 33 33 33.037 33.037 0 0 0 -33-33z"/><path d="m37 66a29 29 0 1 1 29-29 29.033 29.033 0 0 1 -29 29zm0-56a27 27 0 1 0 27 27 27.031 27.031 0 0 0 -27-27z"/><path d="m45 47a5.006 5.006 0 0 1 -5-5v-14a1 1 0 0 1 2 0v14a3 3 0 0 0 6 0 1 1 0 0 1 2 0 5.006 5.006 0 0 1 -5 5z"/><path d="m27.75 47a1 1 0 0 1 -.784-1.62 16.5 16.5 0 0 0 3.534-10.18v-7.2a1 1 0 0 1 2 0v7.2a18.51 18.51 0 0 1 -3.965 11.42 1 1 0 0 1 -.785.38z"/><path d="m25 34a1 1 0 0 1 -1-1 6.007 6.007 0 0 1 6-6h17a1 1 0 0 1 0 2h-17a4 4 0 0 0 -4 4 1 1 0 0 1 -1 1z"/></svg>