<svg height="397pt" viewBox="0 -31 397.11232 397" width="397pt" xmlns="http://www.w3.org/2000/svg" stroke="white" fill="white"><path d="m151.511719.0546875c-15.5 0-29.34375 8.8906245-36.039063 22.6328125-.503906-.019531-.996094-.074219-1.503906-.074219-.121094 0-.222656.0625-.34375.066407-22.601562-.695313-41.28125 17.816406-41.28125 40.597656v.046875c-3.203125-.820313-6.507812-1.234375-9.867188-1.234375-22.175781 0-40.214843 18.238281-40.214843 40.65625 0 5.335937 1.042969 10.589844 3.050781 15.488281-15.757812 11.246094-25.3125 29.613281-25.3125 49.363281s9.554688 38.117188 25.3125 49.363282c-2.007812 4.902343-3.050781 10.152343-3.050781 15.488281 0 22.417969 18.039062 40.660156 40.214843 40.660156 3.359376 0 6.664063-.417969 9.867188-1.234375v.042969c0 22.777343 18.683594 41.265625 41.277344 40.59375.121094.007812.222656.070312.347656.070312.507812 0 1-.058593 1.503906-.074219 6.699219 13.742188 20.539063 22.628907 36.039063 22.628907 22.175781 0 40.21875-18.238281 40.21875-40.660157v-253.757812c0-22.421875-18.042969-40.6640625-40.21875-40.6640625zm0 321.4335935c-9.03125 0-17.167969-4.640625-22.007813-12 14.734375-6.117187 25.125-20.644531 25.125-37.566406 0-3.769531-3.054687-6.824219-6.828125-6.824219-3.769531 0-6.824219 3.054688-6.824219 6.824219 0 12.78125-8.945312 23.460937-20.886718 26.246094-.109375-.003907-.207032-.050781-.316406-.050781-.496094 0-.996094.054687-1.496094.164062-16.96875 3.800781-32.28125-9.5625-32.28125-26.359375 0-3.074219.539062-6.152344 1.601562-9.152344.992188-2.785156.070313-5.890625-2.273437-7.695312-2.347657-1.808594-5.585938-1.898438-8.023438-.21875-4.382812 3.011719-9.507812 4.601562-14.828125 4.601562-14.644531 0-26.5625-12.117187-26.5625-27.007812 0-5.054688 1.414063-10.011719 4.089844-14.332031.980469-1.585938 1.273438-3.5.804688-5.304688-.464844-1.800781-1.648438-3.339844-3.273438-4.246094-14.726562-8.234375-23.878906-23.929687-23.878906-40.964844 0-17.035156 9.152344-32.730468 23.878906-40.96875 1.625-.90625 2.808594-2.441406 3.273438-4.246093.46875-1.800781.175781-3.71875-.804688-5.300781-2.671875-4.320313-4.089844-9.277344-4.089844-14.332032 0-14.890625 11.917969-27.007812 26.5625-27.007812 5.316406 0 10.445313 1.589844 14.828125 4.601562 2.441407 1.675782 5.679688 1.578125 8.023438-.21875 2.34375-1.804687 3.265625-4.910156 2.273437-7.695312-1.0625-3-1.601562-6.082032-1.601562-9.152344 0-16.796875 15.324218-30.179688 32.28125-26.359375.546875.121094 1.078125.0625 1.617187.050781 12.042969 2.714844 21.082031 13.457032 21.082031 26.308594 0 3.769531 3.054688 6.824219 6.824219 6.824219 3.773438 0 6.828125-3.054688 6.828125-6.824219 0-16.921875-10.394531-31.449219-25.125-37.566406 4.839844-7.359375 12.976563-12 22.007813-12 14.648437 0 26.5625 12.117187 26.5625 27.007812v105.957032h-10.035157c-9.777343 0-17.734374-7.058594-17.734374-15.730469 0-3.769531-3.058594-6.828125-6.828126-6.828125-3.769531 0-6.824218 3.058594-6.824218 6.828125 0 16.203125 14.078125 29.382812 31.386718 29.382812h10.035157v48.378907h-11.632813c-5.511718 0-9.996094-3.871094-9.996094-8.628907 0-20.121093-17.546874-36.484375-39.117187-36.484375h-4.542969c-3.773437 0-6.828125 3.054688-6.828125 6.824219s3.054688 6.828125 6.828125 6.828125h4.542969c14.042969 0 25.464844 10.242188 25.464844 22.832031 0 12.285157 10.609375 22.28125 23.648437 22.28125h11.632813v72.121094c0 14.886719-11.914063 27.003906-26.5625 27.003906zm0 0"/><path d="m92.597656 133.765625c0-14.648437-11.914062-26.566406-26.5625-26.566406h-2.820312c-3.769532 0-6.824219 3.058593-6.824219 6.828125 0 3.769531 3.054687 6.828125 6.824219 6.828125h2.820312c7.121094 0 12.910156 5.792969 12.910156 12.910156 0 7.121094-5.789062 12.910156-12.910156 12.910156-3.769531 0-6.824218 3.058594-6.824218 6.828125 0 3.769532 3.054687 6.824219 6.824218 6.824219 14.648438 0 26.5625-11.914063 26.5625-26.5625zm0 0"/><path d="m97.050781 184.730469c-19.3125 0-35.023437 15.707031-35.023437 35.019531v1.421875c0 3.769531 3.058594 6.828125 6.828125 6.828125s6.828125-3.058594 6.828125-6.828125v-1.421875c0-11.78125 9.585937-21.367188 21.367187-21.367188 3.769531 0 6.828125-3.058593 6.828125-6.828124 0-3.769532-3.058594-6.824219-6.828125-6.824219zm0 0"/><path d="m113.96875 115.21875c13.09375 0 23.742188-10.652344 23.742188-23.746094 0-3.769531-3.054688-6.824218-6.824219-6.824218s-6.828125 3.054687-6.828125 6.824218c0 5.566406-4.523438 10.089844-10.089844 10.089844-3.769531 0-6.824219 3.058594-6.824219 6.828125s3.054688 6.828125 6.824219 6.828125zm0 0"/><path d="m139.347656 242.539062c-10.230468 0-18.550781-8.320312-18.550781-18.550781 0-3.769531-3.058594-6.824219-6.828125-6.824219s-6.824219 3.054688-6.824219 6.824219c0 17.757813 14.445313 32.203125 32.203125 32.203125 3.769532 0 6.824219-3.054687 6.824219-6.824218 0-3.769532-3.054687-6.828126-6.824219-6.828126zm0 0"/><path d="m219.035156 61.785156c-3.769531 0-6.828125 3.058594-6.828125 6.828125v68.265625c0 2.074219.945313 4.035156 2.566407 5.332032l17.527343 14.023437c-.308593 1.320313-.507812 2.683594-.507812 4.09375 0 9.984375 8.125 18.105469 18.105469 18.105469 9.984374 0 18.101562-8.121094 18.101562-18.105469 0-9.980469-8.117188-18.105469-18.101562-18.105469-3.570313 0-6.875 1.074219-9.683594 2.859375l-14.351563-11.484375v-64.984375c0-3.769531-3.058593-6.828125-6.828125-6.828125zm35.3125 98.542969c0 2.457031-1.996094 4.449219-4.449218 4.449219-2.457032 0-4.453126-1.996094-4.453126-4.449219s1.996094-4.453125 4.453126-4.453125c2.453124 0 4.449218 2 4.449218 4.453125zm0 0"/><path d="m369.222656 191.789062h-28.625c-.210937 0-.386718.101563-.59375.121094-2.367187-.160156-4.75.804688-6.152344 2.921875l-1.972656 2.960938c-1.171875-.238281-2.382812-.367188-3.621094-.367188-9.984374 0-18.105468 8.125-18.105468 18.105469 0 9.984375 8.121094 18.105469 18.105468 18.105469 9.980469 0 18.101563-8.121094 18.101563-18.105469 0-3.730469-1.136719-7.203125-3.082031-10.089844h19.117187v33.839844h-53.476562l-25.617188-23.617188c.617188-1.824218 1.027344-3.742187 1.027344-5.769531 0-9.984375-8.121094-18.101562-18.101563-18.101562-9.984374 0-18.105468 8.117187-18.105468 18.101562 0 9.980469 8.121094 18.105469 18.105468 18.105469 2.9375 0 5.671876-.769531 8.125-2.015625l27.273438 25.144531c1.261719 1.160156 2.914062 1.804688 4.628906 1.804688h62.96875c3.769532 0 6.824219-3.054688 6.824219-6.824219v-47.492187c0-3.769532-3.054687-6.828126-6.824219-6.828126zm-40.96875 28.191407c-2.453125 0-4.449218-1.996094-4.449218-4.449219s1.996093-4.449219 4.449218-4.449219 4.449219 1.996094 4.449219 4.449219c.003906 2.453125-1.992187 4.449219-4.449219 4.449219zm-66.480468-10.089844c0-2.453125 1.996093-4.449219 4.453124-4.449219 2.453126 0 4.449219 2 4.449219 4.449219 0 2.457031-2 4.453125-4.449219 4.453125-2.457031.003906-4.453124-1.992188-4.453124-4.453125zm0 0"/><path d="m379.007812 146.675781c-.582031 0-1.132812.117188-1.703124.171875l-8.390626-17.457031v-47.125c0-3.769531-3.054687-6.824219-6.824218-6.824219h-34.007813c.042969-.304687.179688-.574218.179688-.890625v-33.832031c0-3.769531-3.054688-6.828125-6.828125-6.828125h-34.132813v-19.890625c0-3.769531-3.054687-6.828125-6.824219-6.828125h-44.375c-.214843 0-.394531.101563-.601562.121094-3.308594-4.367188-8.496094-7.2382815-14.386719-7.2382815-9.984375 0-18.105469 8.1250005-18.105469 18.1093745 0 9.980469 8.121094 18.101563 18.105469 18.101563 9.070313 0 16.535157-6.726563 17.832031-15.441406h34.703126v21.464843c-5.148438 3.195313-8.609376 8.855469-8.609376 15.34375 0 9.984376 8.121094 18.105469 18.101563 18.105469 9.984375 0 18.105469-8.121093 18.105469-18.105469 0-3.734374-1.136719-7.203124-3.082032-10.089843h16.445313v27.007812c0 .316407.136719.585938.179687.890625h-9.089843c-1.726563 0-3.390625.652344-4.65625 1.828125l-23.984375 22.34375c-3.03125-2.285156-6.757813-3.691406-10.835938-3.691406-9.984375 0-18.105468 8.121094-18.105468 18.105469 0 9.980468 8.125 18.105468 18.105468 18.105468 9.984375 0 18.101563-8.125 18.101563-18.105468 0-.789063-.132813-1.542969-.230469-2.304688l24.292969-22.628906h46.875v34.132812h-19.753907c-1.722656 0-3.378906.648438-4.644531 1.820313l-12.644531 11.722656c-2.125-.875-4.441406-1.375-6.878906-1.375-9.984375 0-18.105469 8.125-18.105469 18.105469 0 9.984375 8.121094 18.101562 18.105469 18.101562 9.980468 0 18.101562-8.117187 18.101562-18.101562 0-2.535156-.535156-4.949219-1.480468-7.144531l10.222656-9.480469h19.183594l7.84375 16.320312c-2.648438 3.148438-4.308594 7.15625-4.308594 11.582032 0 9.984375 8.125 18.105468 18.105468 18.105468 9.984376 0 18.105469-8.125 18.105469-18.105468 0-9.984375-8.121093-18.101563-18.105469-18.101563zm-157.894531-124.0625c-2.457031 0-4.453125-1.996093-4.453125-4.449219 0-2.457031 1.996094-4.453124 4.453125-4.453124 2.453125 0 4.449219 1.996093 4.449219 4.453124 0 2.453126-1.996094 4.449219-4.449219 4.449219zm62.027344 39.476563c-2.453125 0-4.449219-1.996094-4.449219-4.453125 0-2.453125 1.996094-4.449219 4.449219-4.449219 2.457031 0 4.453125 1.996094 4.453125 4.449219 0 2.457031-1.996094 4.453125-4.453125 4.453125zm-16.914063 56.390625c-2.457031 0-4.453124-1.996094-4.453124-4.453125 0-2.453125 1.996093-4.449219 4.453124-4.449219 2.453126 0 4.449219 1.996094 4.449219 4.449219 0 2.457031-1.996093 4.453125-4.449219 4.453125zm45.113282 39.472656c-2.457032 0-4.453125-1.996094-4.453125-4.449219 0-2.457031 1.996093-4.453125 4.453125-4.453125 2.453125 0 4.449218 1.996094 4.449218 4.453125 0 2.453125-1.996093 4.449219-4.449218 4.449219zm67.667968 11.28125c-2.457031 0-4.453124-2-4.453124-4.453125 0-2.457031 1.996093-4.449219 4.453124-4.449219 2.453126 0 4.449219 1.996094 4.449219 4.449219.003907 2.453125-1.996093 4.453125-4.449219 4.453125zm0 0"/><path d="m331.222656 255.902344c-9.984375 0-18.105468 8.121094-18.105468 18.101562 0 5.347656 2.375 10.113282 6.070312 13.429688l-2.375 5.8125-29.195312.648437c-.113282 0-.203126.0625-.316407.070313v-10.105469c7.976563-1.890625 13.949219-9.03125 13.949219-17.574219 0-9.984375-8.125-18.105468-18.105469-18.105468-9.984375 0-18.105469 8.121093-18.105469 18.105468 0 6.492188 3.464844 12.152344 8.609376 15.347656v25.914063h-37.1875c-3.195313-5.148437-8.855469-8.613281-15.347657-8.613281-9.984375 0-18.105469 8.121094-18.105469 18.101562 0 9.984375 8.121094 18.105469 18.105469 18.105469 8.542969 0 15.679688-5.96875 17.574219-13.941406h41.789062c3.769532 0 6.824219-3.058594 6.824219-6.828125v-6.917969c.160157.011719.296875.089844.460938.089844h.15625l33.667969-.746094c2.71875-.0625 5.140624-1.726563 6.171874-4.242187l4.304688-10.527344c9.585938-.453125 17.261719-8.328125 17.261719-18.023438 0-9.980468-8.117188-18.101562-18.101563-18.101562zm-110.109375 65.585937c-2.457031 0-4.453125-1.996093-4.453125-4.453125 0-2.453125 1.996094-4.449218 4.453125-4.449218 2.453125 0 4.449219 2 4.449219 4.449218 0 2.457032-1.996094 4.453125-4.449219 4.453125zm62.027344-59.65625c2.457031 0 4.453125 1.996094 4.453125 4.449219 0 2.457031-1.996094 4.453125-4.453125 4.453125-2.453125 0-4.449219-1.996094-4.449219-4.453125 0-2.453125 1.996094-4.449219 4.449219-4.449219zm48.535156 16.535157c-.371093-.246094-.675781-.558594-1.101562-.734376-.816407-.332031-1.65625-.460937-2.488281-.472656-.8125-.804687-1.316407-1.921875-1.316407-3.15625 0-2.453125 1.996094-4.449218 4.453125-4.449218 2.453125 0 4.449219 1.996093 4.449219 4.449218 0 2.296875-1.765625 4.125-3.996094 4.363282zm0 0"/><path d="m205.382812 202.414062v71c0 3.769532 3.054688 6.824219 6.824219 6.824219h11.042969c3.121094 5.464844 8.9375 9.203125 15.667969 9.203125 9.984375 0 18.101562-8.125 18.101562-18.105468 0-9.984376-8.121093-18.105469-18.101562-18.105469-8.332031 0-15.292969 5.6875-17.394531 13.359375h-2.488282v-61.847656l12.238282-15.910157c2.300781-2.988281 1.738281-7.277343-1.246094-9.574219-2.992188-2.300781-7.28125-1.746093-9.574219 1.246094l-13.652344 17.75c-.921875 1.191406-1.417969 2.65625-1.417969 4.160156zm33.535157 64.46875c2.453125 0 4.449219 1.996094 4.449219 4.449219 0 2.457031-1.996094 4.453125-4.449219 4.453125-2.457031 0-4.453125-1.996094-4.453125-4.453125 0-2.453125 1.996094-4.449219 4.453125-4.449219zm0 0"/></svg>